<svg width="512" height="512" viewBox="16.21 52.14 191.01 191.01" xmlns="http://www.w3.org/2000/svg">
  <rect x="16.21" y="52.14" width="191.01" height="191.01" fill="#ffffff"/>
  <path
    fill="#010125"
    d="M82.78,139.81l26.62-68.19c.26-.67.91-1.11,1.63-1.11h1.36c.72,0,1.37.44,1.63,1.11l26.62,68.19h15.41l-29.75-76.22c-1.76-4.52-6.04-7.45-10.9-7.45h-7.38c-4.85,0-9.13,2.92-10.9,7.44l-29.75,76.22h15.41Z"
  />
  <path
    fill="#010125"
    d="M140.64,155.48l-26.62,68.19c-.26.67-.91,1.11-1.63,1.11h-1.36c-.72,0-1.37-.44-1.63-1.11l-26.62-68.19h-15.41l29.75,76.22c1.76,4.52,6.04,7.45,10.9,7.45h7.38c4.85,0,9.13-2.92,10.9-7.44l29.75-76.22h-15.41Z"
  />
</svg>
